<svg version="1.2" xmlns="http://www.w3.org/2000/svg" viewBox="0 0 192 192" width="192" height="192">
	<style>
		.s0 { opacity: 1;fill: #3370d9 } 
		.s1 { fill: #2370e8 } 
		.s2 { fill: #3570c1 } 
		.s3 { fill: #6081e0 } 
		.s4 { fill: #85afe8 } 
		.s5 { fill: #bddfed } 
		.s6 { fill: #f4f9f3 } 
		.s7 { fill: #517093 } 
	</style>
	<g id="Background">
		<path id="Path 0" class="s0" d="m34 3.72c1.38 0.23 3.85 0.23 5.5 0 1.65-0.23 0.52-0.42-2.5-0.42-3.02 0-4.38 0.19-3 0.42zm29.5 0.03c10.45 0.16 27.78 0.16 38.5 0 10.72-0.16 2.18-0.3-19-0.3-21.18 0-29.95 0.14-19.5 0.3zm67 0c4.95 0.18 12.6 0.18 17-0.01 4.4-0.18 0.35-0.33-9-0.33-9.35 0-12.95 0.15-8 0.34zm34 2.36c0.55 0.56 1.9 0.85 3 0.65 1.55-0.28 1.32-0.51-1-1.02-2.03-0.44-2.68-0.33-2 0.37zm5.45 1.92c0.03 0.53 0.73 1.19 1.55 1.47 0.82 0.28 1.48 0.1 1.45-0.39-0.02-0.49-0.72-1.16-1.54-1.47-0.83-0.32-1.48-0.14-1.46 0.39zm6 2.97c-0.01 0.28 1.57 2.19 3.51 4.25 1.95 2.06 3.76 3.64 4.02 3.5 0.27-0.14-1.32-2.05-3.51-4.25-2.2-2.2-4.01-3.78-4.02-3.5zm13.13 59.75c0.04 6.46 0.23 11.3 0.42 10.75 0.18-0.55 0.53-5.84 0.77-11.75 0.23-5.91 0.05-10.75-0.42-10.75-0.47 0-0.81 5.29-0.77 11.75zm0.27 56.25c0 4.68 0.17 6.47 0.38 4 0.21-2.47 0.21-6.3 0-8.5-0.21-2.2-0.38-0.17-0.38 4.5zm-0.12 23.5c0.05 7.67 0.08 7.77 0.73 2.5 0.38-3.03 0.35-6.63-0.05-8-0.46-1.54-0.72 0.56-0.68 5.5zm-4.06 18.28c-0.62 1.5-0.92 2.83-0.65 2.97 0.26 0.14 0.93-0.65 1.48-1.75 0.55-1.1 0.84-2.44 0.65-2.97-0.18-0.53-0.85 0.25-1.48 1.75zm-183.05 0.91c-0.05 0.45 0.35 1.49 0.88 2.31 0.84 1.3 0.99 1.27 1.09-0.19 0.06-0.93-0.34-1.97-0.89-2.31-0.55-0.34-1.04-0.25-1.08 0.19zm176.75 7.58c-2.55 2.33-5.7 5.02-7 5.99-1.77 1.31-1.48 1.26 1.13-0.2 1.93-1.08 5.28-3.78 7.44-6.01 2.17-2.23 3.75-4.04 3.5-4.03-0.24 0.02-2.52 1.93-5.07 4.25zm-170.37 0.61c2.2 2.32 6.25 5.28 9 6.59 2.75 1.3 6.13 2.71 7.5 3.13 1.82 0.56 2.3 0.45 1.75-0.42-0.41-0.65-1.54-1.18-2.5-1.18-0.96 0.01-3.55-0.94-5.75-2.1-2.2-1.15-6.25-3.93-9-6.17l-5-4.07zm155.5 7.78c-0.82 0.28-2.17 0.69-3 0.93-0.82 0.24-1.27 0.63-1 0.87 0.28 0.24 2.53-0.18 5-0.94 2.48-0.76 3.6-1.38 2.5-1.37-1.1 0-2.67 0.24-3.5 0.51zm-112.5 3.09c6.6 0.17 17.63 0.17 24.5 0 6.88-0.17 1.48-0.32-12-0.32-13.47 0-19.1 0.15-12.5 0.32zm54.5 0c4.68 0.18 11.88 0.18 16-0.01 4.13-0.18 0.3-0.33-8.5-0.33-8.8 0-12.17 0.15-7.5 0.34zm31-0.01c3.03 0.2 8.2 0.2 11.5 0 3.3-0.2 0.83-0.36-5.5-0.36-6.32 0-9.02 0.16-6 0.36z"/>
		<path id="Path 1" class="s1" d="m35.5 3.81c-3.85 0.18-7.45 0.68-8 1.12-0.55 0.44-2.24 1.08-3.75 1.43-1.51 0.35-5.13 2.1-8.05 3.89-2.91 1.79-6.87 5.05-8.78 7.25-1.92 2.2-4.28 5.57-5.26 7.5-1.65 3.27-1.74 8.18-1.46 73.32 0.28 65.3 0.41 69.88 2.05 70.75 0.96 0.51 1.77 1.72 1.8 2.68 0.02 0.96 2.39 3.61 5.25 5.88 2.86 2.28 7 5.09 9.2 6.26 2.2 1.16 4.79 2.12 5.75 2.11 0.96 0 1.98 0.45 2.25 1 0.33 0.65 23.67 1 67 1 43.33 0 66.67-0.35 67-1 0.28-0.55 2.41-1.3 4.75-1.66 2.34-0.36 6.05-1.88 8.25-3.38 2.2-1.49 5.36-4.23 7.03-6.09 1.67-1.85 3.7-4.83 4.5-6.62 0.81-1.79 1.81-3.25 2.22-3.25 0.41 0 1.03-2.36 1.38-5.25 0.34-2.89 0.74-31.12 0.89-62.75 0.15-33.69-0.14-60.19-0.71-64-0.74-4.95-1.98-8.05-5.22-13-2.45-3.76-6.1-7.76-8.66-9.5-2.44-1.65-4.65-3.27-4.93-3.6-0.28-0.34-2.3-0.94-4.5-1.35-2.2-0.4-4.45-1.12-5-1.59-0.55-0.47-27.32-0.99-59.5-1.16-32.17-0.16-61.65-0.16-65.5 0.01z"/>
		<path id="Path 2" class="s2" d="m14.04 9.22c-1.35 0.6-2.36 1.47-2.25 1.93 0.12 0.47 1.45 0.09 2.96-0.85 1.51-0.93 2.94-1.83 3.17-2 0.23-0.16 0-0.27-0.5-0.23-0.51 0.03-2.03 0.55-3.38 1.15zm-7.12 6.28c-1.33 1.37-2.19 2.66-1.92 2.86 0.28 0.21 1.52-0.91 2.78-2.49 1.25-1.58 2.11-2.87 1.92-2.87-0.2 0-1.45 1.12-2.78 2.5z"/>
		<path id="Path 3" class="s3" d="m6.92 14.75l-2.42 2.75c4.3-3.88 5.54-5.11 5.53-5.25-0.02-0.14-0.18-0.25-0.36-0.25-0.18 0-1.42 1.24-2.75 2.75zm173.08-0.25c1.37 1.4 2.72 2.55 3 2.55 0.27 0-0.45-1.14-1.61-2.52-1.16-1.39-2.51-2.54-3-2.56-0.49-0.01 0.23 1.13 1.61 2.53zm10.39 32.5c0 6.88 0.16 9.58 0.35 6 0.2-3.58 0.2-9.2 0-12.5-0.19-3.3-0.35-0.37-0.35 6.5zm0.07 58.5c0 23.1 0.13 32.32 0.29 20.5 0.16-11.83 0.16-30.72 0-42-0.16-11.28-0.29-1.6-0.29 21.5zm-0.17 48c0 2.83 0.19 3.7 0.42 2 0.23-1.65 0.23-3.9-0.01-5-0.24-1.1-0.42 0.25-0.41 3zm-185.31 21.75c-0.01 0.14 1.45 1.6 3.25 3.25l3.27 3c-4.08-5.04-5.54-6.5-5.88-6.5-0.34 0-0.63 0.11-0.64 0.25zm174.45 3l-2.93 3.25c5.07-4.65 6.53-6.11 6.52-6.25-0.01-0.14-0.16-0.25-0.34-0.25-0.17 0-1.63 1.46-3.25 3.25zm-89.43 10.47c1.38 0.23 3.85 0.23 5.5 0 1.65-0.23 0.53-0.42-2.5-0.42-3.02 0-4.37 0.19-3 0.42zm65.16-0.03c0.91 0.26 2.26 0.24 3-0.03 0.74-0.28-0.01-0.49-1.66-0.47-1.65 0.03-2.25 0.25-1.34 0.5z"/>
		<path id="Path 4" class="s4" d="m190.76 82.68c0.14 28.5 0.38 57 0.53 63.32 0.15 6.32 0.33-15.95 0.4-49.5 0.06-33.55-0.18-62.04-0.54-63.32-0.36-1.27-0.53 21-0.39 49.5z"/>
		<path id="Path 5" class="s5" d="m51 0.75c0 0.41-5.06 0.89-11.25 1.07-6.19 0.17-11.44 0.51-11.67 0.75-0.23 0.24 29.47 0.32 66 0.19l66.42-0.23c-74.4-0.8-94.88-1.31-93.5-1.64 1.38-0.34-1.66-0.68-6.75-0.75-5.09-0.08-9.25 0.2-9.25 0.61zm-44.6 13.5c-2.21 2.34-4.64 5.15-5.41 6.25-0.77 1.1-0.93 1.55-0.36 1 0.57-0.55 3.19-3.36 5.82-6.25 2.63-2.89 4.6-5.25 4.37-5.25-0.22 0-2.21 1.91-4.42 4.25zm174.1-0.25c2.2 2.22 4.23 4.03 4.5 4.03 0.28 0-1.15-1.81-3.16-4.01-2.01-2.21-4.04-4.03-4.5-4.04-0.46 0 0.96 1.8 3.16 4.02zm-0.05 164.25l-3.95 4.25c6.61-6.2 8.52-8.11 8.52-8.25-0.01-0.14-0.15-0.25-0.32-0.25-0.16 0-2.08 1.91-4.25 4.25zm-171.45 2.25c1.38 1.4 2.73 2.55 3 2.55 0.28 0-0.45-1.14-1.61-2.52-1.16-1.39-2.51-2.54-3-2.56-0.49-0.01 0.24 1.13 1.61 2.53zm85.5 8.49c-50.17 0.38-63.36 0.71-52.5 1.32 7.98 0.44 19.23 0.79 25 0.77 5.78-0.02 22.43-0.32 37-0.67 19.61-0.47 29.4-0.28 37.65 0.73 8.5 1.04 11.71 1.09 13.5 0.21 1.29-0.63 3.93-1.6 5.85-2.15 1.93-0.55 2.83-0.93 2-0.86-0.82 0.08-31.65 0.37-68.5 0.65z"/>
		<path id="Path 6" class="s6" d="m-0.03 10.75l-0.04 10.75c6.64-7.64 10.82-11.29 13.57-13.04 2.75-1.75 7.48-3.9 10.5-4.77 3.02-0.87 10.34-1.72 16.25-1.89 5.92-0.16 10.75-0.64 10.75-1.05 0-0.41-11.48-0.75-25.5-0.75h-25.5zm67.03-9.77c-1.37 0.43 19.55 0.95 46.5 1.15l49 0.37c10.41 4.22 13.8 6.68 18.75 11.68 3.72 3.75 6.75 7.27 6.75 7.82 0 0.55 0.65 2.46 1.44 4.25 0.78 1.79 1.63 4.15 1.88 5.25 0.25 1.1 0.5-5.54 0.57-14.75l0.11-16.75c-94.93 0.15-123.62 0.55-125 0.98zm122.04 165.27c-1.78 4.7-3.87 7.75-8.45 12.3-4.41 4.39-7.74 6.69-12.09 8.34-3.3 1.26-7.51 2.59-9.36 2.95-1.85 0.36-3.54 1-3.75 1.41-0.21 0.41 7.94 0.75 18.11 0.75h18.5c0-24.8-0.13-32-0.3-32-0.17 0-1.37 2.81-2.66 6.25zm-188.87 15.17l-0.17 10.58c45.74-0.11 56.69-0.49 55.5-1-1.1-0.47-7.4-0.9-14-0.94-7.28-0.05-14.16-0.67-17.5-1.58-3.02-0.82-7.3-2.56-9.5-3.86-2.2-1.3-6.28-4.93-9.08-8.07l-5.09-5.71zm79.84 9.58c-1.93 0.4 12.02 0.74 31 0.74 20.33 0.01 32.65-0.32 30-0.79-2.48-0.44-16.43-0.78-31-0.74-14.58 0.03-28.08 0.38-30 0.79z"/>
		<path id="Path 7" fill-rule="evenodd" class="s0" d="m65 29.19c5.22 0.02 8.83 0.19 8 0.37-0.83 0.18-6 0.5-11.5 0.71-5.5 0.21-9.1 0.04-8-0.37 1.1-0.42 6.27-0.74 11.5-0.71zm23 0.19c6.33 0 8.8 0.16 5.5 0.36-3.3 0.2-8.47 0.2-11.5 0-3.03-0.2-0.33-0.36 6-0.36zm25.91 6.54c2.42 1.78 4.35 3.77 4.29 4.41-0.06 0.65-0.92 0.27-1.91-0.84-0.98-1.1-2.92-3.09-4.29-4.42-1.49-1.43-0.72-1.09 1.91 0.85zm10.59 9.76c2.75 2.23 6.46 5.68 8.25 7.68 3.2 3.59 3.29 3.62 8.75 0.36l-3 3.16c-1.65 1.74-3.34 3.15-3.75 3.14-0.41-0.01-1.22-1.26-1.8-2.77-0.58-1.51-3.85-5.64-7.25-9.18-6.18-6.41-6.19-6.41-1.2-2.39zm-45 0.47c9.35-0.06 17.55 0.21 18.22 0.62 0.67 0.4 1.71 3.43 2.3 6.73 0.6 3.3 1.51 7.46 2.03 9.25 0.61 2.07 2.04 3.79 3.95 4.75 1.65 0.83 5.59 1.58 8.75 1.68 3.16 0.1 6.76-0.13 8-0.5 1.24-0.37 2.24-0.34 2.22 0.07-0.02 0.41-3.68 4.58-8.14 9.25-4.46 4.67-7.63 7.6-7.05 6.5 0.58-1.1 2.68-3.58 4.66-5.5 1.98-1.92 3.59-4.29 3.58-5.25-0.02-1.31-1.1-1.88-4.27-2.27-2.34-0.28-5.71-1.41-7.5-2.5-2.02-1.23-4.2-3.97-5.74-7.23-1.37-2.89-2.49-6.71-2.5-8.5-0.01-2.33-0.65-3.6-2.26-4.5-1.55-0.86-7.46-1.25-18.96-1.25-14.67 0-16.88 0.21-18.03 1.73-0.77 1.01-1.74 7.2-3.43 28.27l-0.17-13c-0.14-10.49 0.13-13.42 1.41-15.18 0.88-1.2 2.57-2.38 3.76-2.62 1.19-0.23 9.82-0.48 19.17-0.55zm-41.85 0.85c0.19 0 0.26 21.49 0.16 47.75-0.15 36.31-0.36 43.68-0.89 30.75-0.39-9.35-0.46-30.84-0.16-47.75 0.3-16.91 0.71-30.75 0.89-30.75zm113.08 24.04c0.42 0.02-1.37 2.05-3.98 4.5-2.61 2.45-4.76 4.8-4.78 5.21-0.01 0.41-0.8 1.61-1.75 2.67-1.64 1.83-1.63 1.88 0.28 1.12 1.1-0.44 3.13-0.97 7-1.58l-2.5 1.07c-1.37 0.59-5.1 3.63-8.28 6.77-4.76 4.68-5.96 5.43-6.77 4.2-0.86-1.3-1.23-1.23-2.72 0.5-0.96 1.1-4.55 4.59-7.98 7.75-4.37 4.02-6.47 5.37-6.99 4.5-0.43-0.73-0.33-0.98 0.25-0.6 0.54 0.35 1.55 0.01 2.24-0.75 0.69-0.77 1.11-1.4 0.94-1.4-0.16 0 1.02-1.46 2.64-3.25 1.62-1.79 3.44-3.27 4.05-3.3 0.62-0.02 1.01-0.58 0.87-1.25-0.14-0.66 0.09-1.09 0.5-0.95 0.41 0.13 4.13-3.24 8.25-7.49 4.13-4.25 7.84-7.51 8.25-7.24 0.41 0.26 0.76-0.14 0.77-0.89 0.01-0.76 2.03-3.23 4.48-5.5 2.45-2.27 4.8-4.11 5.23-4.09zm-94.28 7.96c0.25 0 0.37 2.03 0.25 4.5-0.16 3.55-0.57 4.5-1.95 4.5-0.96 0-2.67 1.24-3.78 2.75-1.32 1.78-2.03 4.25-2 7 0.02 3.11 0.63 4.8 2.28 6.28 1.24 1.12 6.06 5.28 10.72 9.25 4.66 3.97 8.82 7.22 9.25 7.22 0.43 0 0.73 0.45 0.68 1-0.06 0.55-0.39 0.93-0.75 0.84-0.36-0.08-2.45-1.81-4.65-3.85-2.2-2.03-5.02-4.43-6.28-5.34-1.25-0.91-2.48-1.43-2.75-1.15-0.26 0.28-0.53 5.9-0.6 12.5-0.07 6.88 0.36 13.17 1.01 14.75 0.61 1.51 1.91 3.17 2.87 3.67 0.96 0.51 5.73 1.07 10.6 1.25 4.86 0.18 9.02 0.67 9.25 1.08 0.22 0.41 1.3 0.75 2.4 0.75 1.59 0 2-0.67 2.01-3.25 0.01-1.79 0.24-4.26 0.5-5.5 0.37-1.68-0.2-2.66-2.26-3.86-1.51-0.89-3.87-3.03-7.75-7.89l4.25 3.25c2.59 1.98 5.19 3.15 6.66 3 1.32-0.14 2.78-0.66 3.25-1.16 0.5-0.54 0.23-0.58-0.66-0.1-0.82 0.45-0.15-0.59 1.5-2.3 1.65-1.72 3.43-3.03 3.95-2.91 0.53 0.12 0.98-0.41 1-1.18 0.03-0.78 0.73-1.5 1.55-1.61 0.83-0.11 3.97-2.6 7-5.54 3.03-2.93 5.39-5.69 5.25-6.14-0.14-0.45 0.31-0.85 1-0.91 0.69-0.05 5.08-0.02 9.75 0.08 4.68 0.1 10.97 0.54 14 0.99 4.45 0.65 2.92 0.82-8 0.86-11.66 0.05-13.74 0.3-15.23 1.86-0.95 1-1.4 2.26-1 2.8 0.4 0.55 0.28 0.68-0.27 0.3-0.55-0.38-1.79 0.18-2.75 1.26-0.96 1.07-1.75 2.29-1.76 2.7 0 0.41-3.24 3.9-7.2 7.75-3.96 3.85-6.81 6.32-6.32 5.5 0.69-1.18 0.47-1.15-1.05 0.14-1.06 0.9-2.75 4.5-3.77 8-1.3 4.46-1.67 7.93-1.25 11.61 0.38 3.29 1.35 6 2.6 7.25 1.1 1.1 1.66 1.99 1.25 1.97-0.41-0.01-1.55-0.8-2.53-1.75-0.98-0.94-1.81-2.62-1.83-3.72-0.04-1.65-0.2-1.56-0.92 0.5-0.48 1.38-1.69 2.88-2.67 3.34-1.48 0.69-1.58 0.6-0.55-0.5 0.8-0.85 1.16-3.69 0.75-14.34l-10-0.5c-5.8-0.29-11.05-1.09-12.5-1.9-1.37-0.77-2.83-1.89-3.23-2.5-0.41-0.6-0.76-7.4-0.83-29.1l-4.47-6.75c-2.46-3.71-4.55-7.19-4.64-7.72-0.1-0.53 0.86-2.67 2.12-4.75 1.26-2.08 3.59-5.24 5.17-7.03 1.58-1.79 2.88-4.15 2.88-5.25 0-1.1 0.2-2 0.45-2zm91.26 9.5c0.23 1.1 0.23 3.13 0 4.5-0.24 1.38-0.44 0.47-0.44-2 0-2.47 0.2-3.6 0.44-2.5zm-82.21 2.46c0.55 0.01 1.79 0.93 2.75 2.03 0.96 1.11 1.41 2.02 1 2.04-0.41 0.02-1.65-0.89-2.75-2.03-1.1-1.14-1.55-2.05-1-2.04zm72.5 7.34c3.02 0 4.15 0.19 2.5 0.42-1.65 0.23-4.13 0.23-5.5 0-1.38-0.23-0.03-0.42 3-0.42zm-58.03 5.2c2.19 2.2 3.78 4.11 3.51 4.25-0.26 0.14-2.06-1.33-3.98-3.25-1.93-1.92-3.51-3.84-3.52-4.25 0-0.41 1.79 1.05 3.99 3.25zm43.53 24.83l-7.5 0.59c-4.13 0.32-8.06 0.92-8.75 1.33-0.69 0.41-1.26 1.54-1.27 2.5 0 0.96-0.48 2.43-1.06 3.25-0.77 1.11-0.87 0.58-0.39-2 0.36-1.93 1.39-4.06 2.29-4.75 1.02-0.78 4.43-1.19 16.68-0.92zm-17.83 15.36c0.46 0.65 3.98 1.36 14.83 1.97l-7.42-0.08c-5.7-0.06-7.51-0.43-7.83-1.58q-0.42-1.55 0.42-0.31zm-66.48 5.31c0.26 0.28 2.44 2.75 4.85 5.5 4.17 4.75 4.2 4.83 0.59 1.5-2.09-1.93-4.27-4.4-4.85-5.5-0.58-1.1-0.84-1.78-0.59-1.5zm105.73 5c0.42 0 0.27 0.88-0.33 1.95-0.6 1.08-1.21 1.86-1.35 1.75-0.14-0.11 0.01-0.99 0.33-1.95 0.33-0.96 0.94-1.75 1.35-1.75zm-3.12 4c0.19 0-0.25 0.7-0.98 1.54-0.73 0.85-1.56 1.53-1.85 1.5-0.28-0.02 0.15-0.72 0.98-1.54 0.82-0.82 1.65-1.5 1.85-1.5zm-74.3 4.25c2.2-0.01 3.24 0.19 2.31 0.44-0.92 0.25-2.72 0.26-4 0.02-1.27-0.24-0.51-0.45 1.69-0.46zm8 0c2.2-0.01 3.24 0.19 2.31 0.44-0.92 0.25-2.72 0.26-4 0.02-1.27-0.24-0.51-0.45 1.69-0.46zm29.5-0.06c4.67 0.02 7.82 0.19 7 0.37-0.83 0.18-5.55 0.5-10.5 0.72-4.95 0.22-8.1 0.06-7-0.37 1.1-0.42 5.82-0.75 10.5-0.72zm17.5 0.15c4.4 0 6.42 0.17 4.5 0.39-1.93 0.21-5.53 0.21-8 0-2.48-0.21-0.9-0.38 3.5-0.39z"/>
		<path id="Path 8" class="s1" d="m61.84 47.66c-1.46 0.25-3.26 1.18-4 2.05-0.99 1.19-1.37 5.9-1.44 18.19-0.06 9.13 0.05 17.05 0.23 17.6 0.19 0.55 1.58 1.29 3.1 1.65 1.53 0.35 7.72 5.14 13.77 10.64 8.8 7.99 11.35 9.81 12.75 9.1 0.96-0.49 8.5-7.64 16.75-15.89 9.33-9.33 15-15.76 15-17 0-1.61-0.84-2.1-4.25-2.52-2.34-0.28-5.71-1.41-7.5-2.5-2.02-1.23-4.2-3.97-5.74-7.23-1.37-2.89-2.49-6.71-2.5-8.5-0.01-2.34-0.64-3.59-2.26-4.46-1.42-0.77-7.63-1.29-16.75-1.41-7.97-0.1-15.7 0.02-17.16 0.28zm-5.08 72.59c-0.27 4.54-0.13 10.95 0.32 14.25 0.61 4.46 1.41 6.46 3.12 7.79 1.62 1.26 4.23 1.83 8.8 1.92 3.57 0.07 7.47 0.17 8.66 0.21 1.19 0.04 2.54 0.43 3 0.86 0.46 0.43 1.51 0.77 2.34 0.76 1.06-0.01 1.7-1.57 2.16-5.28 0.54-4.26 0.35-5.5-1-6.52-0.91-0.7-4.36-3.78-7.66-6.85-3.3-3.08-6.68-6.17-7.5-6.88-0.83-0.71-3.41-2.91-5.75-4.9-2.34-1.98-4.64-3.61-5.12-3.61-0.47 0-1.09 3.71-1.37 8.25z"/>
		<path id="Path 9" fill-rule="evenodd" class="s2" d="m85.5 29.76c6.05 0.14 13.36 0.48 16.25 0.75 4.04 0.38 6.11 1.23 9 3.71 2.06 1.76 7.51 6.83 12.11 11.25 4.6 4.41 8.99 9.49 9.75 11.28 0.77 1.79 1.81 3.14 2.31 3 0.51-0.14 2.87-2.07 5.25-4.3 2.38-2.23 5.01-4.42 5.83-4.86 0.82-0.45-3.68 4.32-10 10.59-6.32 6.27-18.47 18-27 26.07-8.53 8.07-15.63 14.58-15.78 14.46-0.16-0.11 3.2-3.59 7.46-7.71 4.26-4.13 11.46-11.33 16.01-16 4.56-4.67 8.29-8.84 8.29-9.25 0.01-0.41-0.99-0.44-2.23-0.07-1.24 0.37-4.84 0.6-8 0.5-3.16-0.1-7.1-0.85-8.75-1.68-1.91-0.96-3.34-2.68-3.95-4.75-0.52-1.79-1.43-5.95-2.03-9.25-0.59-3.3-1.63-6.33-2.3-6.73-0.67-0.41-0.77-0.77-0.22-0.8 0.55-0.03 1.52 0.52 2.15 1.24 0.64 0.71 1.49 3.99 1.89 7.29 0.4 3.3 1.12 7.01 1.59 8.25 0.48 1.24 2.22 2.92 3.87 3.75 1.65 0.83 5.25 1.5 8 1.5 2.9 0 6.16-0.7 7.75-1.67 1.51-0.91 3.99-3.16 5.5-5 2.55-3.09 2.65-3.53 1.36-6.08-0.77-1.51-5.38-6.6-10.25-11.3-4.87-4.71-10.19-9.43-11.81-10.5-2.68-1.77-5.19-1.98-26.5-2.28-14.19-0.2-24.94 0.07-27.05 0.69-1.92 0.56-5.52 2.77-8 4.91-2.48 2.14-5.07 5.2-5.77 6.81-0.99 2.26-1.21 14.16-0.73 103.07l2.5 3.67c1.37 2.02 4.41 5.03 6.75 6.68 4.03 2.84 4.92 3.03 17 3.63 11.75 0.57 12.85 0.48 14.02-1.25 0.69-1.04 1.25-3.68 1.23-5.88-0.02-2.2-0.36-4.53-0.77-5.19-0.4-0.65-3.65-1.36-7.23-1.58-6.33-0.38-6.3-0.39 8.5-0.23l0.32 6.5c0.22 4.45-0.09 6.9-1 7.76-0.86 0.82-4.47 1.27-10.32 1.28-4.95 0.01-11.02-0.28-13.5-0.64-2.48-0.36-5.62-1.22-7-1.9-1.37-0.68-4.3-3.24-6.5-5.68-2.2-2.45-4.35-6-4.78-7.89-0.42-1.89-0.75-25.48-0.72-52.43 0.05-48.74 0.07-49.02 2.28-52.93 1.32-2.34 4.24-5.15 7.22-6.98 4.56-2.78 5.97-3.09 16-3.57 6.05-0.29 15.95-0.4 22-0.26zm-9 15.63c7.7 0.01 10.63 0.16 6.5 0.35-4.12 0.19-10.42 0.19-14 0-3.58-0.19-0.2-0.35 7.5-0.35zm-16.64 0.75c2.29 0.11 2.34 0.18 0.39 0.5-1.24 0.2-3.01 1.6-3.94 3.11-1.46 2.37-1.62 4.87-0.69 33.75l-2.69 3c-1.48 1.65-3.64 4.69-4.81 6.75-1.17 2.06-2.12 4.2-2.12 4.75 0 0.55 2.01 4.04 8.94 14.5l0.04 14c0.03 7.7 0.38 14.5 0.79 15.1 0.4 0.61 2.08 1.83 3.73 2.71 1.65 0.89 2.33 1.64 1.5 1.68-0.83 0.05-2.74-0.84-7-3.99v-14c0-13.04-0.15-14.19-2.25-16.75-1.24-1.51-3.26-4.21-4.5-6-1.24-1.79-2.54-4.71-2.89-6.5-0.47-2.42-0.03-4.32 1.75-7.46 1.32-2.31 3.63-4.9 7.89-7.29l0.25-17.35c0.19-12.87 0.6-17.78 1.61-19 0.75-0.91 2.55-1.59 4-1.51zm-1.36 41.04c0.55-0.05 2.58 0.81 4.5 1.92 1.92 1.11 2.6 1.7 1.5 1.31-1.1-0.39-3.55-0.92-5.44-1.17-2.76-0.36-3.88 0.06-5.75 2.16-1.48 1.66-2.31 3.86-2.31 6.1 0 3.2 1.27 4.73 14.75 17.74 8.11 7.84 13.63 13.35 12.26 12.25-1.37-1.09-6.54-5.77-11.5-10.39-4.95-4.62-10.53-9.35-12.4-10.5-1.86-1.16-3.77-2.89-4.25-3.85-0.47-0.96-0.88-3.44-0.89-5.5-0.03-2.31 0.76-4.78 2.03-6.43 1.14-1.48 3.07-2.88 4.29-3.12 1.21-0.23 2.66-0.47 3.21-0.52zm33.48 15.86c0.27-0.02-1.19 1.65-3.23 3.71-3 3.03-3.96 3.51-4.98 2.48-1.03-1.02-0.98-1.26 0.23-1.25 0.83 0 2.85-1.1 4.5-2.45 1.65-1.35 3.22-2.47 3.48-2.49zm24.83 0.95c0.38 0-0.77 1.35-2.56 3-1.79 1.66-3.45 3.01-3.69 3.01-0.23 0 0.92-1.35 2.57-3 1.65-1.65 3.31-3 3.68-3.01zm-7.43 7.01c0.51 0-1.55 2.36-4.6 5.25-3.04 2.89-6.82 6.36-8.4 7.72-1.59 1.36 0.48-1 4.59-5.25 4.12-4.24 7.9-7.72 8.41-7.72zm3.93 1c0.55 0-0.98 2-3.41 4.45-2.42 2.44-4.51 4.24-4.65 4-0.14-0.25 1.39-2.25 3.4-4.45 2.01-2.2 4.11-4 4.66-4zm-7.06 15.98c2.03-0.01 2.08 0.11 0.58 1.25-0.91 0.7-1.87 2.17-2.13 3.27-0.3 1.27-0.51 0.82-0.58-1.25-0.1-2.73 0.24-3.25 2.13-3.27zm-14.73 5.02c0.12 0 0.07 0.56-0.11 1.25-0.18 0.69-1.14 1.62-2.12 2.08-1.63 0.75-1.62 0.64 0.11-1.25 1.04-1.14 2-2.08 2.12-2.08zm-4.97 9c0.25 0 0.4 3.94 0.34 8.75-0.1 8.24-0.16 8.49-1.09 4.25-0.54-2.47-0.69-6.41-0.34-8.75 0.36-2.34 0.85-4.25 1.09-4.25zm17.95 0c0.28 0 0.73 0.9 1 2 0.28 1.1 0.05 2-0.5 2-0.55 0-1-0.9-1-2 0-1.1 0.23-2 0.5-2zm-11.5 20.23c1.93 0 2.83 0.21 2 0.46-0.82 0.25-2.4 0.25-3.5 0-1.1-0.25-0.42-0.46 1.5-0.46z"/>
		<path id="Path 10" class="s7" d="m52.5 32.32c-1.65 0.72-4.8 2.91-7 4.85-2.2 1.94-4.57 4.83-5.27 6.43-0.99 2.25-1.21 14.13-1 52.97l0.27 50.08c3.87 5.69 6.91 8.7 9.25 10.35 4.03 2.84 4.92 3.03 17 3.63 11.75 0.57 12.85 0.48 14.02-1.25 0.69-1.04 1.25-3.68 1.23-5.88-0.02-2.2-0.36-4.49-0.77-5.1-0.4-0.6-5.23-1.4-10.73-1.77-7.33-0.49-10.67-1.16-12.5-2.5-2.42-1.78-2.52-2.29-3-16.41-0.44-12.75-0.75-14.86-2.52-16.89-1.11-1.28-3.02-3.79-4.25-5.58-1.23-1.79-2.52-4.71-2.87-6.5-0.47-2.42-0.03-4.32 1.75-7.46 1.32-2.31 3.63-4.9 5.14-5.75l2.75-1.54c0.47-32.7 0.73-35.16 2.29-36.72 1.59-1.59 3.92-1.78 21.59-1.78 16.21 0 20.11 0.27 21.46 1.5 1 0.91 1.9 3.87 2.28 7.5 0.34 3.3 1.02 7.01 1.5 8.25 0.49 1.24 2.23 2.92 3.88 3.75 1.65 0.83 5.25 1.5 8 1.5 2.9 0 6.16-0.7 7.75-1.67 1.51-0.91 3.99-3.16 5.5-5 2.55-3.09 2.65-3.53 1.36-6.08-0.77-1.51-5.38-6.6-10.25-11.3-4.87-4.71-10.19-9.43-11.81-10.5-2.7-1.78-5.11-1.97-27.5-2.2-18.61-0.19-25.28 0.07-27.55 1.07z"/>
		<path id="Path 11" class="s3" d="m152.16 48.69c0.91 0.26 2.26 0.24 3-0.03 0.74-0.28-0.01-0.49-1.66-0.47-1.65 0.03-2.25 0.25-1.34 0.5zm-13.18 10.06l-8.48 8.75c13.57-13.17 17.51-17.11 17.51-17.25-0.01-0.14-0.13-0.25-0.28-0.25-0.15 0-4.09 3.94-8.75 8.75zm12.45 10.5l-2.93 3.25c5.07-4.65 6.53-6.11 6.52-6.25-0.01-0.14-0.16-0.25-0.34-0.25-0.17 0-1.63 1.46-3.25 3.25zm-34.46 10.26c-4.11 4.13-7.25 7.51-6.97 7.51 0.28 0 3.86-3.38 7.97-7.51 4.11-4.13 7.25-7.51 6.98-7.51-0.28 0-3.86 3.38-7.98 7.51zm22.95 8.24l-2.42 2.75c4.3-3.87 5.54-5.11 5.53-5.25-0.02-0.14-0.18-0.25-0.36-0.25-0.18 0-1.42 1.24-2.75 2.75zm-12.98 5l-3.44 3.75c5.84-5.42 7.53-7.11 7.52-7.25-0.01-0.14-0.16-0.25-0.33-0.25-0.17 0-1.85 1.69-3.75 3.75zm19.02 1.93c-0.25 1.75-0.1 2.88 0.34 2.5 0.44-0.37 0.65-1.8 0.46-3.18-0.3-2.23-0.39-2.15-0.8 0.68zm-52.48 7.57l-7.98 8.25c12.8-12.4 16.51-16.11 16.51-16.25-0.01-0.14-0.13-0.25-0.28-0.25-0.15 0-3.87 3.71-8.25 8.25zm-17.48 0.25c1.92 1.94 3.72 3.54 4 3.54 0.28 0-0.92-1.59-2.65-3.52-1.73-1.94-3.53-3.53-4-3.54-0.47-0.01 0.73 1.58 2.65 3.52zm-11.5 11.5c3.3 3.31 6.22 6.02 6.5 6.02 0.28 0-2.06-2.7-5.19-6.01-3.13-3.31-6.05-6.01-6.5-6.02-0.44-0.01 1.89 2.7 5.19 6.01zm39.96 0.25l-4.96 5.25c8.16-7.75 10.52-10.11 10.51-10.25 0-0.14-0.14-0.25-0.3-0.25-0.16 0-2.52 2.36-5.25 5.25zm5 3l-4.96 5.25c8.16-7.75 10.52-10.11 10.51-10.25 0-0.14-0.14-0.25-0.3-0.25-0.16 0-2.52 2.36-5.25 5.25zm12.54 9.72l-18.5 0.53v17.5l0.5-17c29.02 0 36.18-0.39 36.46-1 0.26-0.55 0.37-0.9 0.25-0.78-0.11 0.11-8.53 0.45-18.71 0.75z"/>
		<path id="Path 12" class="s4" d="m127.43 70.25l-2.93 3.25c5.07-4.65 6.53-6.11 6.52-6.25-0.01-0.14-0.16-0.25-0.34-0.25-0.17 0-1.63 1.46-3.25 3.25zm14.05 8l-10.98 11.25c17.45-17.05 22.51-22.11 22.51-22.25-0.01-0.14-0.13-0.25-0.28-0.25-0.14 0-5.21 5.06-11.25 11.25zm1.43 7.5c-1.12 1.49-1.1 1.56 0.09 0.5 0.77-0.69 1.76-1.25 2.2-1.25 0.44 0 0.95 1.69 1.13 3.75l0.33 3.75c0.29-7.29-0.06-8.5-1.05-8.5-0.76 0-1.98 0.79-2.7 1.75zm-37.95 5.76c-2.45 2.49-4.24 4.52-3.96 4.52 0.28 0 2.5-2.03 4.95-4.52 2.45-2.48 4.23-4.51 3.96-4.51-0.27 0-2.5 2.03-4.95 4.51zm29.96 1.24l-2.42 2.75c4.3-3.88 5.54-5.11 5.53-5.25-0.02-0.14-0.18-0.25-0.36-0.25-0.18 0-1.42 1.24-2.75 2.75zm-65.42 4.25c2.75 2.76 5.22 5.03 5.5 5.03 0.28 0-1.6-2.26-4.18-5.02-2.57-2.75-5.04-5.02-5.5-5.02-0.45-0.01 1.43 2.25 4.18 5.01zm47.47 4.51c-4.11 4.13-7.25 7.51-6.97 7.51 0.28 0 3.86-3.38 7.97-7.51 4.11-4.13 7.25-7.51 6.98-7.51-0.28 0-3.86 3.38-7.98 7.51zm17.53-3.79c1.65 0.22 4.8 0.22 7 0.01 2.2-0.22 0.85-0.4-3-0.4-3.85-0.01-5.65 0.17-4 0.39zm-81.52 4.53c-0.01 0.14 1.45 1.6 3.25 3.25l3.27 3c-4.08-5.04-5.54-6.5-5.88-6.5-0.34 0-0.63 0.11-0.64 0.25zm29.02 6.03c1.37 1.52 3.17 2.72 4 2.67 1.33-0.1 1.33-0.17 0-0.66-0.83-0.3-2.63-1.5-4-2.67l-2.5-2.12zm56.25 4.28c1.49 0.38 1.71 1.48 1.5 7.4-0.14 3.82 0.1 6.64 0.52 6.25 0.42-0.39 0.65-3.63 0.5-7.2-0.24-5.65-0.53-6.51-2.27-6.69q-2.14-0.23-0.25 0.24zm-45.28 11.95c-4.11 4.13-7.25 7.51-6.97 7.51 0.27 0 3.86-3.38 7.97-7.51 4.11-4.13 7.25-7.51 6.98-7.51-0.28 0-3.86 3.38-7.98 7.51zm-18.47-1.51c2.75 2.77 5.22 5.03 5.5 5.03 0.27 0-1.6-2.26-4.18-5.01-2.57-2.76-5.04-5.02-5.5-5.03-0.45-0.01 1.43 2.25 4.18 5.01zm21.21 7.75l-8.75 8.75 0.54 22 47 0.08-46-1.08-0.54-21c13.56-13.56 17.27-17.5 17-17.5-0.28 0-4.44 3.94-9.25 8.75z"/>
		<path id="Path 13" class="s5" d="m153.56 49.85c1.68 0.36 3.72 1.1 4.54 1.65 0.82 0.55 0.57 0.19-0.55-0.79-1.13-0.99-3.18-1.73-4.55-1.65-2.24 0.13-2.19 0.21 0.56 0.79zm-16.08 11.4l-7.98 8.25c12.8-12.4 16.51-16.11 16.51-16.25-0.01-0.14-0.13-0.25-0.28-0.25-0.15 0-3.87 3.71-8.25 8.25zm17.95 3l-2.93 3.25c5.07-4.65 6.53-6.11 6.52-6.25-0.01-0.14-0.16-0.25-0.34-0.25-0.17 0-1.63 1.46-3.25 3.25zm-18.95 17.76c-6.59 6.6-11.76 12-11.48 12 0.28 0 5.89-5.4 12.48-12 6.59-6.61 11.76-12.01 11.49-12.01-0.28 0-5.89 5.4-12.49 12.01zm-22 1.24l-9.98 10.25c15.9-15.5 20.51-20.11 20.51-20.25-0.01-0.14-0.13-0.25-0.28-0.25-0.15 0-4.76 4.61-10.25 10.25zm30.32 6.5c0.16 2.61 0.45 5.42 0.63 6.25 0.19 0.82 0.39-1.31 0.45-4.75 0.07-3.44-0.22-6.25-0.63-6.25-0.41 0-0.62 2.14-0.45 4.75zm-8.34 2.5l-4.96 5.25c8.16-7.75 10.52-10.11 10.51-10.25 0-0.14-0.14-0.25-0.3-0.25-0.16 0-2.52 2.36-5.25 5.25zm-78.96-1.56c1.1 0.25 2.67 0.25 3.5 0 0.82-0.25-0.08-0.46-2-0.46-1.93 0-2.6 0.21-1.5 0.46zm-5.05 2.53c-0.9 1.22-1.56 3.14-1.46 4.25 0.14 1.55 0.4 1.32 1.12-0.97 0.51-1.65 1.4-3.56 1.98-4.25 0.58-0.69 0.82-1.25 0.53-1.25-0.29 0-1.26 1-2.17 2.22zm14.05 1.78c2.2 2.22 4.22 4.03 4.5 4.03 0.27 0-1.15-1.81-3.16-4.01-2.01-2.21-4.04-4.03-4.5-4.04-0.46 0 0.96 1.8 3.16 4.02zm13.21 12.05c2.87 3 5.37 5.23 5.55 4.95 0.18-0.28-2.17-2.73-5.22-5.45l-5.54-4.96zm10.74-0.79l-3.95 4.25c6.61-6.2 8.52-8.12 8.51-8.25-0.01-0.14-0.15-0.25-0.31-0.25-0.17 0-2.08 1.91-4.25 4.25zm17.02 4l-6.97 7.25c11.25-10.85 14.51-14.12 14.5-14.25 0-0.14-0.13-0.25-0.28-0.25-0.15 0-3.42 3.26-7.25 7.25zm-44.97 0.75c2.75 2.76 5.22 5.02 5.5 5.02 0.27 0-1.61-2.26-4.18-5.01-2.57-2.76-5.05-5.02-5.5-5.03-0.45 0 1.43 2.25 4.18 5.02zm59 1.73c3.3 0.2 8.25 0.2 11 0 2.75-0.2 0.05-0.36-6-0.36-6.05 0-8.3 0.17-5 0.36zm-16.52 9.99c-5.22 5.35-8.02 8.39-6.24 6.75l3.25-2.97 0.51 20 21 0.1-20.5-0.6v-19c34.72-0.48 36.5-0.67 36.73-2.25q0.26-1.73-0.23-0.25c-0.42 1.26-3.43 1.5-18.75 1.5l-18.25 0.01c10.02-10.09 12.71-13.01 12.44-13.01-0.27 0-4.75 4.37-9.96 9.72zm34.21-7.22c0.02 1.9 0.2 2.26 0.48 1 0.25-1.1 0.23-2.45-0.03-3-0.27-0.55-0.47 0.35-0.45 2zm-42.28 4.25l-2.41 2.75c4.3-3.88 5.54-5.12 5.52-5.25-0.01-0.14-0.17-0.25-0.36-0.25-0.18 0-1.41 1.23-2.75 2.75zm-19.41 5.25c2.75 2.76 5.22 5.02 5.5 5.02 0.27 0-1.61-2.26-4.18-5.01-2.57-2.76-5.05-5.02-5.5-5.03-0.45 0 1.43 2.25 4.18 5.02zm10.94 24.5l0.06 11h46.5l-46-0.5-0.62-21.5zm41.56-2.77c3.02 0.21 7.52 0.2 10 0 2.47-0.21 0-0.37-5.5-0.37-5.5 0-7.53 0.17-4.5 0.37zm11.53 9.11l-1.82 2.66c3.71-3.45 4.53-4.64 4.21-4.88-0.32-0.23-1.39 0.77-2.39 2.22z"/>
		<path id="Path 14" fill-rule="evenodd" class="s6" d="m152.71 49.99c1.53 0 3.8 0.67 5.04 1.5 1.55 1.04 2.26 2.53 2.28 4.76 0.03 2.71-1.01 4.24-6.25 9.2-3.45 3.27-13.74 13.17-22.87 22-9.12 8.83-22.15 21.45-28.96 28.05-6.8 6.6-13.4 12.79-14.66 13.75-2.28 1.74-2.36 1.68-14.99-10-6.99-6.46-14.42-13.44-16.5-15.5-2.15-2.12-3.8-4.73-3.81-6 0-1.24 0.67-3.26 1.5-4.5 1.12-1.67 2.48-2.25 5.26-2.24 3.37 0.01 4.88 1.07 26.25 20.99l20.25-19.36c11.14-10.64 25.74-24.59 32.46-31 9.58-9.14 12.81-11.64 15-11.65zm-8.5 36.01c0.44 0 0.79 2.47 0.79 11l-12.5 0.02 5.46-5.51c3.01-3.03 5.82-5.51 6.25-5.51zm-28.77 27l23.06-0.04 0.75 4.02c0.41 2.21 0.53 5.15-0.25 9.02l-36.5 0.02zm-14.18 13.86l1.24 19.64 21.25 0.25c19.48 0.23 21.25 0.4 21.25 2-0.01 0.96-0.91 3.21-2 5-1.1 1.79-3.35 3.92-5 4.75-2.41 1.2-7.56 1.5-49 1.5l0.08-21.5z"/>
	</g>
</svg>