<svg version="1.2" xmlns="http://www.w3.org/2000/svg" viewBox="0 0 472 184" width="472" height="184">
	<style>
		.s0 { fill: #2671f0 } 
		.s1 { fill: #5e7189 } 
		.s2 { fill: #fafdf8 } 
		.s3 { fill: #fefefe } 
	</style>
	<g id="Background">
		<path id="Path 0" class="s0" d="m102.81 66.75l-38.75 38.75c-26.38-25.84-27.26-26.5-31.11-26.5-2.99 0-4.68 0.65-6.5 2.5-1.82 1.86-2.45 3.59-2.45 6.75-0.01 4.2 0.25 4.5 20.08 24.25l20.09 20c67.41-68.2 87.85-89.35 88.9-91 1.06-1.65 1.92-4.01 1.93-5.25 0-1.24-1.13-3.6-2.5-5.25-2.05-2.46-3.25-3-6.72-3h-4.22zm-19.7 57.5l-17.07 17.25-0.04 28.5c53.27-0.04 55.84-0.2 59.75-2.02 2.89-1.35 5.04-3.34 6.71-6.23 1.36-2.34 2.82-5.72 3.25-7.52l0.79-3.28-51.5 0.05v-25h45v-19h-29.81z"/>
		<path id="Path 1" class="s1" d="m28.97 6.93c-1.39 0.41-4.32 1.68-6.5 2.82-2.18 1.14-5.16 3.35-6.61 4.91-1.45 1.56-3.7 4.86-5 7.34l-2.36 4.5c-0.49 110.98-0.31 120.68 0.96 124.5 0.82 2.47 3.19 6.48 5.26 8.89 2.08 2.41 5.8 5.56 8.28 7 4.25 2.46 5.36 2.62 19.75 2.86l15.25 0.25v-19l-25.17-0.5-5.83-6.5-0.06-37.5c-8.29-8.55-9.91-11.16-10.44-14-0.42-2.2-0.48-5.8-0.14-8 0.33-2.2 1.29-5.01 2.12-6.25 0.84-1.24 3.1-3.15 5.02-4.25l3.5-2c0-30.23 0.45-40.13 1-41.5 0.55-1.38 2.35-3.18 4-4 2.42-1.21 7.67-1.5 27-1.5h24c0 16.08 0.46 19.4 1.75 21.93 0.96 1.88 2.88 4.26 4.25 5.28 1.38 1.02 5.05 2.18 8.17 2.57l5.66 0.72 18.67-18.5-32-30.9c-44.95 0.06-59.14 0.41-60.53 0.83zm98.03 72.34c-4.65 4.55-8.36 8.6-8.23 9 0.13 0.4 4.06 0.73 8.73 0.73h8.5c0-13.95-0.12-18-0.27-18-0.15 0-4.08 3.72-8.73 8.27z"/>
		<path id="Path 2" fill-rule="evenodd" class="s2" d="m129.5 30.12c1.1-0.1 2.9 0.75 6 3.98l-71.42 71.4-13.54-13.25c-12.86-12.59-13.74-13.25-17.59-13.25-2.99 0-4.68 0.65-6.5 2.5-1.82 1.86-2.45 3.59-2.45 6.75-0.01 4.2 0.25 4.5 40.16 44.25l44.17-44.9c34.15-34.71 44.57-44.75 45.92-44.25 1.21 0.45 1.75 1.73 1.75 4.15 0 3.21-1.51 5-18.43 21.75-18.11 17.93-18.42 18.31-17.84 21.75 0.33 2 2.24 5.42 4.46 8 2.13 2.47 3.86 5.29 3.84 6.25-0.03 1.58-1.38 1.75-28.03 1.75l-33.96 34.5-0.04 28.5 27.75 0.02c27.68 0.02 27.76 0.01 32.75-2.5 2.75-1.39 5.56-2.3 6.25-2.02 0.69 0.27 1.26 1.74 1.28 3.25 0.01 1.61-0.92 3.6-2.25 4.82-1.26 1.13-3.52 2.82-5.03 3.75-1.82 1.11-2.75 2.53-2.75 6.68h-21c-17.78 0-21.08-0.23-21.5-1.5-0.32-0.95-3.24-2.05-8-3-6.46-1.29-8.06-2.06-15.5-9.5v-9.5c0-8.83-0.14-9.5-2-9.5-1.8 0-2.01-0.69-2.07-6.75-0.04-3.71-0.38-7.52-0.75-8.47-0.37-0.94-3.49-4.65-6.93-8.25-3.7-3.86-7.37-6.76-9-7.09-1.51-0.31-3.54-0.98-4.5-1.5-0.96-0.52-2.65-0.94-3.75-0.94-1.77 0-2-0.66-1.98-5.75 0.01-5.44-0.21-5.97-4.12-9.75-2.27-2.2-4.76-5.46-5.52-7.25-0.76-1.79-1.38-5.16-1.38-7.5 0-2.34 0.79-5.82 1.75-7.73 0.96-1.91 3.33-4.51 5.25-5.78 2.3-1.51 4.96-2.29 7.75-2.27 2.34 0.02 4.48 0.48 4.75 1.03 0.28 0.55 1.63 1 3 1 1.38 0 4.86 1.78 7.75 3.96 2.89 2.17 6.83 5.31 8.75 6.97 3.08 2.66 4.25 3.02 16.12 3.07l10.44-10.5c6.27-6.31 10.44-11.3 10.44-12.5 0-1.1 0.79-3.8 1.75-6 1.62-3.71 2.05-4.01 5.75-4.04 3.67-0.04 4.72-0.76 12.78-8.75 4.88-4.84 8.55-9.27 8.25-9.96-0.29-0.69 0.03-2.12 0.7-3.18 0.68-1.07 2.37-2.12 3.75-2.35 1.39-0.23 3.42-0.5 4.52-0.6zm-44.5 95.88h41l-0.25 3.25c-0.21 2.73-0.81 3.44-3.75 4.44-1.92 0.66-6.76 1.22-10.75 1.25-3.99 0.03-8.15 0.51-9.25 1.06-1.1 0.55-2 1.68-2 2.5 0 0.82 0.79 1.89 1.75 2.36 0.96 0.48 6.7 1.15 12.75 1.5 8.53 0.49 11.4 1.03 12.78 2.39 0.98 0.96 1.77 2.76 1.72 6.25h-44z"/>
		<path id="Path 3" fill-rule="evenodd" class="s3" d="m0 0h472v184h-348v-2.5c0-1.65 0.93-3.07 2.75-4.18 1.51-0.93 3.77-2.62 5.03-3.75 1.33-1.22 2.26-3.21 2.25-4.82-0.02-1.51-0.69-3.09-1.51-3.5-1.24-0.63-1.09-1.52 1.02-5.75 1.37-2.75 2.49-5.79 2.48-6.75-0.02-1.33-0.86-1.75-3.52-1.75-2.97 0-3.5-0.34-3.47-2.25 0.02-1.24-0.77-3.04-1.75-4-1.38-1.36-4.25-1.9-12.78-2.39-6.05-0.35-11.79-1.02-12.75-1.5-0.96-0.47-1.75-1.54-1.75-2.36 0-0.82 0.9-1.95 2-2.5 1.1-0.55 5.26-1.03 9.25-1.06 3.99-0.03 8.83-0.59 10.75-1.25 2.94-1 3.54-1.71 3.75-4.44 0.19-2.5 0.71-3.25 2.25-3.25 1.86 0 2-0.67 2-9.5 0-5.67-0.4-9.5-1-9.5-0.55 0-0.98-0.79-0.97-1.75 0.02-0.96-1.78-3.89-4-6.5-2.37-2.79-4.03-5.78-4.03-7.25 0-2.46 0.13-2.5 16-2.5l-0.06-17.5 10.04-10.5c8.54-8.92 10.05-10.99 10.03-13.75 0-2-0.63-3.54-1.62-4-1.31-0.61-1.4-1.18-0.5-3 0.61-1.24 1.11-3.15 1.11-4.25 0-1.1-1.12-3.35-2.5-5-2.01-2.42-3.28-3-6.5-3-3.05 0-4.78 0.71-10.5 5.96l-2-2.06c-1.67-1.73-2.73-1.96-6.5-1.41-2.64 0.38-5.12 1.45-6 2.58-1.43 1.82-2.26 1.2-32-27.07l-60.5 0.5-5 2.66c-2.75 1.46-6.19 3.93-7.64 5.5-1.45 1.56-3.7 4.86-7.36 11.84l-0.26 60c-0.23 50.98-0.05 60.68 1.22 64.5 0.82 2.47 3.19 6.48 5.26 8.89 2.08 2.41 5.8 5.56 8.28 7 4.25 2.46 5.36 2.62 35 3.11l3.75 3.81c3.1 3.15 5.13 4.14 11.68 5.75 4.36 1.07 8.07 2.5 8.25 3.19 0.25 0.98-8.37 1.25-81.68 1.25zm83 25v9c0 5.16 0.56 10.39 1.32 12.25 0.73 1.79 2.64 4.28 4.25 5.53 1.61 1.26 3.72 2.27 4.68 2.25 0.96-0.01 1.76 0.53 1.78 1.22 0.02 0.69-0.65 2.6-1.49 4.25-0.84 1.65-1.53 4.01-1.53 5.25-0.01 1.51-3.42 5.68-20.89 23.25l-6.31-0.03c-5.56-0.02-6.73-0.38-9.81-3.04-1.92-1.66-5.86-4.8-8.75-6.97-2.89-2.18-6.37-3.96-7.75-3.96-1.37 0-2.72-0.45-3-1-0.27-0.55-2.3-1-8.5-1v-19.5c0-10.73 0.45-20.63 1-22 0.55-1.38 2.24-3.16 3.75-3.96 2.19-1.16 7.72-1.47 51.25-1.54zm-54 93c1.1 0 2.79 0.42 3.75 0.94 0.96 0.52 2.99 1.19 4.5 1.5 1.63 0.33 5.3 3.23 9 7.09 3.44 3.6 6.56 7.31 6.93 8.25 0.37 0.95 0.71 4.76 0.82 15.22l-10.58-0.25c-10.55-0.25-10.6-0.26-13.5-3.5-2.91-3.24-2.92-3.3-2.92-16.25 0-12.33 0.1-13 2-13z"/>
		<path id="Path 4" class="s0" d="m268.96 50.63c-1.19 1.45-2.14 3.59-2.1 4.75 0.04 1.17 0.99 3.36 2.11 4.87 1.62 2.2 2.83 2.75 6.03 2.75q4 0 6-2c1.24-1.24 2-3.33 2-5.5 0-2.17-0.76-4.26-2-5.5-1.32-1.32-3.33-2-5.93-2-3.04 0-4.44 0.6-6.11 2.63zm-97.17 6.12c-0.22 0.96-0.26 16.04-0.09 33.5l0.3 31.75h39v-11h-26l0.5-17.5c4.65 0.44 9.71 0.33 14.25 0.04l8.25-0.54v-10l-22.5-0.5-0.5-16.5h26v-11c-37.07 0-38.84 0.16-39.21 1.75zm145.71 13.15c-1.65 0.38-4.46 1.68-6.25 2.89-1.79 1.22-3.48 2.21-3.75 2.21-0.27 0-0.5-1.13-0.5-2.5 0-2.41-0.23-2.5-6.5-2.5h-6.5v52h13c0.04-22.09 0.46-30.3 0.97-32.5 0.51-2.2 2.07-5.01 3.48-6.25 1.84-1.62 3.81-2.25 7.05-2.25 3.56 0 5.18 0.61 7.75 2.92l3.25 2.91 1 35.67h13c-0.29-32.28-0.73-38.02-1.85-41-0.84-2.2-3.13-5.46-5.09-7.25-1.96-1.79-5.25-3.7-7.31-4.24-2.06-0.55-4.87-0.96-6.25-0.9-1.37 0.05-3.85 0.41-5.5 0.79zm-48.5 26.1v26h13v-52h-13zm81-25.5c0 0.27 2.43 7.14 5.4 15.25 2.97 8.11 7.36 19.6 9.75 25.53l4.35 10.79c14.22-0.06 15.6-0.36 16.09-1.82 0.32-0.96 4.61-12.55 9.52-25.75 4.92-13.2 8.93-24.11 8.91-24.25-0.01-0.14-3.17-0.25-7.02-0.25h-7c-9.3 28.67-12.34 37-12.75 37-0.41 0-2.7-5.73-5.09-12.75-2.39-7.01-5.31-15.35-6.5-18.54l-2.16-5.78c-10.46 0.05-13.5 0.29-13.5 0.57zm55.99 0.25c0 0.41 2.96 8.17 6.58 17.25 3.62 9.07 8.17 20.32 10.11 25l3.53 8.5c-7.91 18.21-10.21 23.95-10.21 24.5 0 0.59 2.75 0.9 6.74 0.75l6.75-0.25c23.59-57.35 30.46-74.56 30.48-75.25 0.02-0.9-1.83-1.18-6.68-1l-6.71 0.25c-10.14 26.66-13.31 34.15-13.58 33.84-0.27-0.31-2.2-5.13-4.27-10.7-2.07-5.58-4.88-13.18-6.25-16.89l-2.48-6.75c-10.85 0-14 0.34-14.01 0.75z"/>
		<path id="Path 5" fill-rule="evenodd" class="s2" d="m190.42 47.98c4.4-0.01 7.56 0.47 8.35 1.25 0.69 0.7 1.26 2.28 1.25 3.52-0.02 2.17-0.36 2.25-18.02 2.25l-0.17-2.83c-0.09-1.56 0.21-3.14 0.67-3.5 0.46-0.37 4.02-0.68 7.92-0.69zm74.08 9.1c1.16-0.07 2.95 1.15 4.25 2.9 1.85 2.48 2.96 3.02 6.25 3.02 2.97 0 4.58-0.63 6.25-2.46 1.39-1.52 3.39-2.48 5.25-2.52 2.1-0.04 3.9 0.87 6 3.06 2.96 3.08 3.09 3.11 9.5 2.32 3.58-0.43 11.45-0.79 17.5-0.79 8.76 0 11.51 0.35 13.5 1.72 1.38 0.94 5.36 2.04 8.85 2.44 3.49 0.4 6.67 1.18 7.06 1.73 0.39 0.55 2.89 7.08 5.55 14.5 2.66 7.43 7.13 19.25 15.04 39.07l7.75-0.04c6.47-0.02 7.85-0.32 8.34-1.78 0.32-0.96 4.61-12.55 9.52-25.75 4.92-13.2 8.93-24.11 8.91-24.25-0.01-0.14-0.92-0.25-2.02-0.25-1.58 0-1.95-0.58-1.75-2.75 0.22-2.37 0.74-2.79 3.75-3.02 1.93-0.15 4.08 0.3 4.79 1 0.72 0.7 1.28 2.06 1.25 3.02-0.02 1.07-0.82 1.75-2.04 1.75-1.1 0-2 0.34-2.01 0.75 0 0.41 2.96 8.18 6.58 17.25 3.62 9.08 8.12 20.21 13.43 33l-3.75 8.97c-3.72 8.91-3.76 8.96-5.75 7.07-1.68-1.6-2.1-3.71-2.63-13.22-0.4-7.31-1.2-12.47-2.25-14.57-1.51-3.04-1.92-3.23-10.9-2.75l-3.87 7.5c-2.13 4.13-5.55 8.97-7.61 10.78-3.61 3.16-4.03 3.27-20.74 3.18l-10-10.33-5.5 1.18c-3.02 0.65-6.17 1.18-7 1.19-1.25 0-1.61-2.86-2.14-17.25-0.52-13.8-1.03-18.15-2.58-21.75-1.06-2.47-3.36-5.74-5.11-7.25-1.74-1.51-5.08-3.24-7.42-3.84-2.34-0.6-6.27-0.79-8.75-0.43-2.48 0.36-6.19 1.76-8.25 3.09-2.06 1.34-3.98 2.43-4.25 2.43-0.27 0-0.5-1.12-0.5-2.5 0-2.41-0.23-2.5-13-2.5l-0.03 27.25c-0.02 24.42-0.2 27.43-1.75 29.03-0.94 0.98-2.62 1.77-3.72 1.76-1.1-0.01-3.01-0.7-4.25-1.53-2.24-1.5-2.25-1.6-2.25-56.51h-13l0.04 52.5-3.27 3.14c-2.72 2.62-4.27 3.23-9.27 3.65-3.3 0.28-8.58 1.11-11.73 1.86-4.84 1.14-6.48 1.14-10.5-0.03-2.62-0.75-9.49-1.6-15.27-1.87-7.82-0.37-12.54-0.04-18.5 1.26-4.83 1.06-9.98 1.55-13 1.23-2.75-0.29-7.02-1.13-9.5-1.86-2.9-0.85-6.1-2.93-9-5.85-3.13-3.15-4.88-5.97-5.75-9.28-0.8-3.05-1.26-12.16-1.27-25.5-0.01-14.96 0.33-21.1 1.2-22 0.67-0.69 2.7-1.25 4.52-1.25 2.04 0 3.49 0.57 3.8 1.5 0.28 0.83 0.5 13.42 0.5 54.5h39v-11h-26v-17l5.25 0.01c2.89 0 8.07-0.34 17.77-1.51l-0.02-9.5-22.5-0.5-0.5-16.5h13c11.71 0 13-0.17 13-1.75 0-1.6 1.81-1.77 21.75-2.03 20.85-0.26 21.91-0.37 25.75-2.65 2.2-1.3 4.9-2.42 6-2.49zm112.5 14.92c6.6 0 12 0.34 12 0.75 0 0.41-2.48 8.29-5.5 17.5-3.03 9.21-5.84 16.76-6.25 16.77-0.41 0.01-3.33-7.53-6.48-16.75-3.15-9.22-5.74-17.11-5.75-17.52-0.01-0.41 5.38-0.75 11.98-0.75zm55.41 0c8.27 0 11.77 0.36 12.21 1.25 0.34 0.69-2.02 8.09-5.25 16.45-3.23 8.36-6.1 14.95-6.37 14.63-0.27-0.31-2.8-6.7-5.6-14.2-2.81-7.49-5.44-14.64-5.85-15.88-0.73-2.25-0.72-2.25 10.86-2.25zm27.5 3.98c0.87-0.01 2.16 0.56 2.86 1.25 0.69 0.7 1.26 3.41 1.25 6.02-0.02 3.57-0.98 6.55-3.88 12-2.12 3.99-6.44 13.78-9.59 21.75-3.16 7.97-6.38 15.85-7.17 17.5-0.78 1.65-1.42 3.45-1.42 4 0 0.55-1.01 2.02-2.23 3.28-1.43 1.46-3.39 2.26-5.48 2.25-2.62-0.03-3.15-0.37-2.73-1.78 0.29-0.96 6.43-16.26 13.66-34 9.46-23.2 13.59-32.25 14.73-32.27zm-141.35 5.02c3.74 0 4.99 0.55 11.44 7v32l-2.75-0.03c-1.51-0.02-3.65-0.7-4.75-1.52-1.1-0.82-3.12-1.5-4.5-1.51-1.37-0.02-3.17 0.69-4 1.56-0.82 0.87-2.74 1.57-7 1.5l0.02-13.25c0.02-7.29 0.44-15.05 0.95-17.25 0.51-2.22 2.09-5 3.54-6.25 1.86-1.6 3.89-2.25 7.05-2.25z"/>
		<path id="Path 6" class="s0" d="m220.02 75.48l-0.02 5.52c17.05 0 22 0.22 22 0.5 0 0.28-4.95 7.03-11 15-10.91 14.38-11 14.55-11 20v5.5h39v-11c-17.82 0-23-0.22-23-0.5 0-0.28 5.19-7.36 11.54-15.75 11.16-14.74 11.53-15.4 11.25-19.75l-0.29-4.5-38.46-0.54z"/>
	</g>
</svg>